<?xml version="1.0" standalone="no"?><!DOCTYPE svg PUBLIC "-//W3C//DTD SVG 1.1//EN" "http://www.w3.org/Graphics/SVG/1.1/DTD/svg11.dtd"><svg t="1648562746472" class="icon" viewBox="0 0 1024 1024" version="1.1" xmlns="http://www.w3.org/2000/svg" p-id="1707" xmlns:xlink="http://www.w3.org/1999/xlink" width="200" height="200"><defs><style type="text/css">@font-face { font-family: feedback-iconfont; src: url("//at.alicdn.com/t/font_1031158_u69w8yhxdu.woff2?t=1630033759944") format("woff2"), url("//at.alicdn.com/t/font_1031158_u69w8yhxdu.woff?t=1630033759944") format("woff"), url("//at.alicdn.com/t/font_1031158_u69w8yhxdu.ttf?t=1630033759944") format("truetype"); }
</style></defs><path d="M983.130188 1022.286872H39.40444A36.674142 36.674142 0 0 1 2.731543 985.611485a36.672897 36.672897 0 0 1 36.674142-36.610646h426.862755V810.760353a619.94202 619.94202 0 0 1-38.135779 50.84729l-1.080665 1.334647a99.849481 99.849481 0 0 0 6.355756-76.270313c-30.826348 86.440766-71.058717 88.983068-71.50443 88.983069a113.071444 113.071444 0 0 0 6.800223-74.681685 123.68512 123.68512 0 0 1-64.44898 100.232943 34.703297 34.703297 0 0 0 0-45.069217c-25.423022 54.024545-111.228836 72.393364-114.914053 73.093057a80.91045 80.91045 0 0 0 30.953339-46.207153 242.921835 242.921835 0 0 1-163.095786 52.626404H48.621219c62.922603-17.792381 171.164669-73.345793 329.365091-237.262038a91.33364 91.33364 0 0 0-0.444467-48.876445 114.851803 114.851803 0 0 1-60.187325 93.875942 33.24166 33.24166 0 0 0 0-42.330204c-23.580414 49.066931-99.279268 66.48332-108.050335 68.325929a75.190892 75.190892 0 0 0 29.109485-43.220383 227.223554 227.223554 0 0 1-152.548095 49.385653h-7.817392a694.319923 694.319923 0 0 0 264.215172-177.964892 28.02882 28.02882 0 0 0-2.923274-32.541967c-21.8013 45.567219-94.702626 60.445041-95.338824 60.572032a64.194999 64.194999 0 0 0 25.423022-38.135779 199.829687 199.829687 0 0 1-134.554023 43.601355h-7.752652a612.265313 612.265313 0 0 0 243.177061-166.457301 24.277617 24.277617 0 0 0-5.911289-15.63603c-18.6228 38.961218-81.03744 51.667749-81.672393 51.800964a57.203045 57.203045 0 0 0 22.182272-32.605462 172.753297 172.753297 0 0 1-115.997209 37.428615h-5.720802a510.889455 510.889455 0 0 0 198.812517-133.464642c-15.380804 8.3266-27.965325 14.555365-31.461301 16.270983a223.093869 223.093869 0 0 0 49.322157-63.114334 355.040849 355.040849 0 0 1-159.469083 48.430733 410.976479 410.976479 0 0 0 153.813021-100.677409l-3.305491 1.779113-2.415312 1.207656c-1.715618 0.890179-3.305491 1.652123-4.703632 2.478807a176.185778 176.185778 0 0 0 38.897722-50.211092 279.659471 279.659471 0 0 1-126.673135 38.134534 353.19824 353.19824 0 0 0 133.91907-91.143154l-5.976029 3.1785-6.355756 3.112515-2.669292 1.334647-3.622968 1.842609a143.899038 143.899038 0 0 0 30.502647-39.34219 216.738113 216.738113 0 0 1-98.70781 30.06316 321.162991 321.162991 0 0 0 120.261354-87.081944c-7.626907 4.513147-13.919167 7.563411-16.207488 8.707572a89.491031 89.491031 0 0 0 19.067267-24.978556 138.557962 138.557962 0 0 1-63.558801 19.449484 283.028458 283.028458 0 0 0 106.525202-89.298055 26.616983 26.616983 0 0 0 1.782849-2.287076 308.452725 308.452725 0 0 0 108.050335 91.588866h-0.634953a136.651858 136.651858 0 0 1-63.177829-19.512979v0.507962a77.350977 77.350977 0 0 0 19.382253 24.851565q-8.122419-4.036309-16.080497-8.390095a305.083739 305.083739 0 0 0 119.428445 86.25028l0.444467 0.380972h-1.144161a210.76333 210.76333 0 0 1-97.69064-29.875164 133.98381 133.98381 0 0 0 30.502647 38.897722l-3.1785-1.398141c-3.876949-1.970844-8.771067-4.386156-14.236644-7.372926a346.714249 346.714249 0 0 0 133.474603 90.444705h-0.89018a271.716333 271.716333 0 0 1-125.782955-38.453255 198.304555 198.304555 0 0 0 33.490661 45.953172 36.035453 36.035453 0 0 0 5.465576 4.003939l-3.420031-1.586138-7.436421-3.813453a412.499121 412.499121 0 0 0 153.811776 100.867895h-0.89018a339.277828 339.277828 0 0 1-158.324922-48.495473l0.826684 1.525132c1.715618 3.050265 5.021109 8.964043 9.534256 16.080498a170.910688 170.910688 0 0 0 38.643741 45.508704l-3.112515-1.398142c-5.784298-2.988014-15.444299-7.944383-26.757669-14.173148a594.721933 594.721933 0 0 0 173.068283 124.127097 237.132557 237.132557 0 0 0 24.661079 8.644077H822.516945a188.897289 188.897289 0 0 1-85.931559-21.991786 1.461637 1.461637 0 0 1-0.890179-0.444467h-2.03434a2.288321 2.288321 0 0 1-0.890179-0.699693 2.668048 2.668048 0 0 1-0.890179-0.698449h-0.89018a81.165676 81.165676 0 0 1-12.711511-11.122883 58.220215 58.220215 0 0 0 21.928291 32.859443h-0.634953a125.528974 125.528974 0 0 1-80.973945-51.800964 23.580414 23.580414 0 0 0-5.911289 15.63603v0.444467a629.234744 629.234744 0 0 0 242.599378 165.956809h-7.055449a200.973848 200.973848 0 0 1-134.934994-43.601355 66.675051 66.675051 0 0 0 25.805239 38.135779h-0.571458a149.364614 149.364614 0 0 1-94.893112-60.631792 28.792009 28.792009 0 0 0-3.1785 32.605462A699.150546 699.150546 0 0 0 944.741673 777.767695h-7.691647a227.223554 227.223554 0 0 1-152.541869-49.385653v0.761943a71.694915 71.694915 0 0 0 28.918999 42.454705h-0.571458a164.808913 164.808913 0 0 1-106.906174-68.262434 30.502647 30.502647 0 0 0-7.690402 20.593644 38.135779 38.135779 0 0 0 7.626906 21.609569 16.594685 16.594685 0 0 1-2.415311-1.01717 115.29627 115.29627 0 0 1-57.902739-92.733026 68.45043 68.45043 0 0 0-3.1785 23.707404 118.856987 118.856987 0 0 0 2.739013 24.91506c127.115112 131.630749 237.773735 211.588769 329.362601 237.519754h-8.839543a268.856554 268.856554 0 0 1-145.232439-37.37259 113.829653 113.829653 0 0 1-17.415144-15.126823 79.385317 79.385317 0 0 0 31.016834 45.953171h-0.571457a179.363034 179.363034 0 0 1-114.406091-72.966066 33.941353 33.941353 0 0 0-7.30943 15.313574 38.643741 38.643741 0 0 0 7.30943 29.936169 124.257823 124.257823 0 0 1-63.558801-100.359934 74.80992 74.80992 0 0 0-3.368986 25.423023 131.439018 131.439018 0 0 0 10.169209 49.068176c-4.322661-0.380972-41.822241-6.355756-71.50443-88.983068a79.89079 79.89079 0 0 0-4.513146 29.174225 108.050335 108.050335 0 0 0 11.059388 47.051267 8.615441 8.615441 0 0 1-1.080665-1.207656 658.827292 658.827292 0 0 1-41.885737-56.311621v143.4471h430.230496a36.545906 36.545906 0 0 1 36.674142 36.418916v2.923274a36.735147 36.735147 0 0 1-10.868902 23.072451 36.354175 36.354175 0 0 1-23.961386 10.614921 4.575397 4.575397 0 0 1-3.305491-1.715618zM392.60268 519.213565a114.853048 114.853048 0 0 1-10.169209 38.135778l4.003939-4.13093 0.317477-0.380971c2.863514-2.988014 5.851528-6.355756 8.580581-9.088544a68.263679 68.263679 0 0 0-2.739013-24.661079z m236.75781 0a66.798307 66.798307 0 0 0-2.739013 24.402117l12.711511 13.601691a111.736798 111.736798 0 0 1-10.169209-38.135779z" p-id="1708"></path></svg>